<svg width="52" height="40" viewBox="0 0 52 40" fill="none" xmlns="http://www.w3.org/2000/svg">
<path d="M20.7671 20.9335C20.7705 22.0662 21.1103 23.1725 21.7435 24.1118C22.3766 25.051 23.2745 25.7811 24.3233 26.2092C25.372 26.6372 26.5243 26.7441 27.6339 26.5162C28.7435 26.2883 29.7604 25.7359 30.5555 24.929C31.3506 24.1222 31.8881 23.0974 32.0997 21.9845C32.3114 20.8717 32.1876 19.7211 31.7442 18.6788C31.3008 17.6364 30.5578 16.7492 29.6093 16.1299C28.6608 15.5106 27.5498 15.187 26.4171 15.2002C25.6192 15.1944 24.8294 15.3592 24.1004 15.6835V13.3335H20.7671V20.1502M26.3171 22.4835C25.9874 22.4835 25.6652 22.3858 25.3911 22.2026C25.1171 22.0195 24.9034 21.7592 24.7773 21.4546C24.6511 21.1501 24.6181 20.815 24.6824 20.4917C24.7468 20.1684 24.9055 19.8714 25.1386 19.6383C25.3717 19.4052 25.6686 19.2465 25.9919 19.1822C26.3152 19.1179 26.6503 19.1509 26.9549 19.277C27.2594 19.4032 27.5197 19.6168 27.7029 19.8909C27.886 20.165 27.9838 20.4872 27.9838 20.8168C27.9838 21.2589 27.8082 21.6828 27.4956 21.9953C27.183 22.3079 26.7591 22.4835 26.3171 22.4835Z" fill="url(#paint0_linear_471_737)"/>
<mask id="mask0_471_737" style="mask-type:luminance" maskUnits="userSpaceOnUse" x="6" y="0" width="40" height="40">
<path d="M26 40C37.0457 40 46 31.0457 46 20C46 8.9543 37.0457 0 26 0C14.9543 0 6.00003 8.9543 6.00003 20C6.00003 31.0457 14.9543 40 26 40Z" fill="white"/>
</mask>
<g mask="url(#mask0_471_737)">
<path d="M45.0498 13.879C43.9666 10.5391 42.0232 7.54332 39.415 5.1927C36.8068 2.84207 33.6258 1.21949 30.1917 0.488075C26.7576 -0.24334 23.1915 -0.0578094 19.8518 1.02601C16.5121 2.10983 13.5166 4.05374 11.1665 6.66233C6.16647 14.8123 9.23314 23.629 16.5331 28.5457L16.7998 27.429C15.0211 25.2052 14.1014 22.4161 14.2085 19.5705C14.3156 16.7249 15.4424 14.0128 17.3831 11.929L17.8665 11.429C26.4165 3.229 39.4331 3.21233 45.0498 13.879Z" fill="url(#paint1_linear_471_737)"/>
<path d="M45.0499 13.873C39.4332 3.20638 26.3999 3.22304 17.7999 11.4064C19.2672 10.0073 21.0682 9.00686 23.0313 8.50032C24.9945 7.99378 27.0547 7.99796 29.0158 8.51246C30.9769 9.02696 32.7738 10.0347 34.2354 11.4397C35.6971 12.8448 36.775 14.6004 37.3665 16.5397C37.5366 17.1243 37.6647 17.7202 37.7499 18.323C39.8665 29.423 33.4499 39.9897 21.8499 39.5397C25.2769 40.2673 28.835 40.082 32.1679 39.0022C35.5008 37.9224 38.4915 35.9861 40.8408 33.387C43.1901 30.788 44.8154 27.6174 45.5541 24.1927C46.2928 20.768 46.1189 17.2094 45.0499 13.873Z" fill="url(#paint2_linear_471_737)"/>
<path d="M37.7497 18.3298C37.8321 18.8815 37.8711 19.4387 37.8664 19.9965C37.8664 23.1437 36.6162 26.162 34.3907 28.3875C32.1653 30.6129 29.147 31.8632 25.9997 31.8632C25.0901 31.8688 24.1833 31.7624 23.2997 31.5465L22.6331 31.3798L21.4164 30.9798L15.3997 32.9965L16.4164 28.5298C9.11638 23.5298 5.96639 14.7965 11.0497 6.64648C8.7122 9.25572 7.10102 12.4332 6.37746 15.8608C5.6539 19.2884 5.84333 22.8459 6.92679 26.1773C8.01026 29.5087 9.94975 32.4971 12.5511 34.8434C15.1525 37.1896 18.3245 38.8114 21.7497 39.5465H21.8497C33.4497 39.9965 39.8664 29.4465 37.7497 18.3298Z" fill="url(#paint3_linear_471_737)"/>
<path opacity="0.18" d="M45.0664 13.7439C46.8164 25.6939 36.283 33.3272 24.5164 31.8106C27.5478 32.2348 30.6245 31.4506 33.083 29.6272C35.1437 28.1292 36.6667 26.007 37.4262 23.5753C38.1858 21.1436 38.1414 18.5318 37.2997 16.1272C37.0929 15.5559 36.8479 14.9991 36.5664 14.4606C31.7164 4.24391 20.3497 -0.539419 11.2164 6.69391C13.2105 4.485 15.6724 2.74891 18.4226 1.61222C21.1728 0.475527 24.142 -0.0331132 27.1137 0.123378C30.0855 0.279869 32.9848 1.09755 35.6004 2.5168C38.2161 3.93605 40.482 5.92111 42.2331 8.32725C43.4455 9.97944 44.4008 11.8057 45.0664 13.7439Z" fill="url(#paint4_linear_471_737)" style="mix-blend-mode:overlay"/>
<path opacity="0.18" d="M11.1335 6.6651C20.5835 -0.818235 32.4835 4.48176 37.0502 15.4318C35.9049 12.5935 33.6902 10.3189 30.8835 9.09843C28.5542 8.07105 25.9568 7.81775 23.473 8.37573C20.9891 8.9337 18.7496 10.2735 17.0835 12.1984C16.6853 12.6647 16.3231 13.1605 16.0002 13.6818C9.56683 22.9818 11.1835 35.1818 21.9502 39.5318C20.5912 39.2651 19.2624 38.8631 17.9835 38.3318C15.5792 37.2694 13.4079 35.7435 11.5938 33.8413C9.77972 31.9391 8.35836 29.698 7.41104 27.2461C6.46372 24.7942 6.00901 22.1796 6.07291 19.5519C6.13682 16.9241 6.71809 14.3347 7.78349 11.9318C8.62408 10.0151 9.75391 8.23889 11.1335 6.6651Z" fill="url(#paint5_linear_471_737)" style="mix-blend-mode:overlay"/>
<path opacity="0.18" d="M20.1665 31.395L15.3998 33.0616L16.7165 27.545C16.3998 27.095 16.0998 26.645 15.7998 26.1616C15.9682 26.4223 16.1518 26.6727 16.3498 26.9117C16.0147 26.466 15.7192 25.992 15.4665 25.495C14.5612 23.767 14.0991 21.8412 14.1217 19.8906C14.1443 17.9399 14.6508 16.0254 15.5958 14.3188C16.5408 12.6122 17.8947 11.1669 19.536 10.1126C21.1774 9.05834 23.0548 8.42805 24.9998 8.27832H24.8165C13.5332 8.94499 4.9165 17.745 8.14983 28.895L8.08316 28.5283C8.091 28.6393 8.091 28.7507 8.08316 28.8617C9.48378 31.6824 11.5307 34.1325 14.0574 36.0126C16.584 37.8926 19.519 39.1493 22.6232 39.6805C25.7274 40.2117 28.9132 40.0023 31.9212 39.0693C34.9292 38.1364 37.6743 36.5062 39.9332 34.3116C40.8557 33.4182 41.6875 32.4356 42.4165 31.3783C35.8332 38.0783 26.6498 37.1616 20.1665 31.395Z" fill="url(#paint6_linear_471_737)" style="mix-blend-mode:overlay"/>
</g>
<defs>
<linearGradient id="paint0_linear_471_737" x1="40.2671" y1="23.4668" x2="10.8004" y2="16.7668" gradientUnits="userSpaceOnUse">
<stop offset="0.25" stop-color="#5D00BB"/>
<stop offset="0.42" stop-color="#593DD4"/>
<stop offset="0.6" stop-color="#5577EB"/>
<stop offset="0.73" stop-color="#529BF9"/>
<stop offset="0.8" stop-color="#51A9FF"/>
<stop offset="0.96" stop-color="#C5E4FC"/>
</linearGradient>
<linearGradient id="paint1_linear_471_737" x1="10.6498" y1="22.879" x2="38.2831" y2="2.46232" gradientUnits="userSpaceOnUse">
<stop offset="0.04" stop-color="#5D00BB"/>
<stop offset="0.22" stop-color="#593DD4"/>
<stop offset="0.41" stop-color="#5577EB"/>
<stop offset="0.56" stop-color="#529BF9"/>
<stop offset="0.63" stop-color="#51A9FF"/>
<stop offset="1" stop-color="#C5E4FC"/>
</linearGradient>
<linearGradient id="paint2_linear_471_737" x1="31.8999" y1="6.93971" x2="31.8999" y2="39.623" gradientUnits="userSpaceOnUse">
<stop offset="0.04" stop-color="#5D00BB"/>
<stop offset="0.22" stop-color="#593DD4"/>
<stop offset="0.41" stop-color="#5577EB"/>
<stop offset="0.56" stop-color="#529BF9"/>
<stop offset="0.63" stop-color="#51A9FF"/>
<stop offset="1" stop-color="#C5E4FC"/>
</linearGradient>
<linearGradient id="paint3_linear_471_737" x1="33.6497" y1="23.1132" x2="1.79972" y2="23.1132" gradientUnits="userSpaceOnUse">
<stop offset="0.04" stop-color="#5D00BB"/>
<stop offset="0.22" stop-color="#593DD4"/>
<stop offset="0.41" stop-color="#5577EB"/>
<stop offset="0.56" stop-color="#529BF9"/>
<stop offset="0.63" stop-color="#51A9FF"/>
<stop offset="1" stop-color="#C5E4FC"/>
</linearGradient>
<linearGradient id="paint4_linear_471_737" x1="38.5635" y1="27.2627" x2="19.2804" y2="0.789244" gradientUnits="userSpaceOnUse">
<stop offset="0.04" stop-color="#5D00BB"/>
<stop offset="0.22" stop-color="#593DD4"/>
<stop offset="0.41" stop-color="#5577EB"/>
<stop offset="0.56" stop-color="#529BF9"/>
<stop offset="0.63" stop-color="#51A9FF"/>
<stop offset="1" stop-color="#C5E4FC"/>
</linearGradient>
<linearGradient id="paint5_linear_471_737" x1="26.8303" y1="5.5811" x2="13.757" y2="35.3229" gradientUnits="userSpaceOnUse">
<stop offset="0.04" stop-color="#5D00BB"/>
<stop offset="0.22" stop-color="#593DD4"/>
<stop offset="0.41" stop-color="#5577EB"/>
<stop offset="0.56" stop-color="#529BF9"/>
<stop offset="0.63" stop-color="#51A9FF"/>
<stop offset="1" stop-color="#C5E4FC"/>
</linearGradient>
<linearGradient id="paint6_linear_471_737" x1="24.9665" y1="9.49499" x2="24.9665" y2="39.6283" gradientUnits="userSpaceOnUse">
<stop offset="0.04" stop-color="#5D00BB"/>
<stop offset="0.22" stop-color="#593DD4"/>
<stop offset="0.41" stop-color="#5577EB"/>
<stop offset="0.56" stop-color="#529BF9"/>
<stop offset="0.63" stop-color="#51A9FF"/>
<stop offset="1" stop-color="#C5E4FC"/>
</linearGradient>
</defs>
</svg>
