<svg width="61" height="24" viewBox="0 0 61 24" fill="none" xmlns="http://www.w3.org/2000/svg">
<path d="M22.5004 12.0004V18.0004C22.5004 18.1993 22.4214 18.3901 22.2807 18.5307C22.1401 18.6714 21.9493 18.7504 21.7504 18.7504H15.7504C15.5515 18.7504 15.3607 18.6714 15.2201 18.5307C15.0794 18.3901 15.0004 18.1993 15.0004 18.0004C15.0004 17.8015 15.0794 17.6107 15.2201 17.4701C15.3607 17.3294 15.5515 17.2504 15.7504 17.2504H19.9401L12.7504 10.0607L9.53104 13.281C9.46139 13.3508 9.37867 13.4061 9.28762 13.4438C9.19657 13.4816 9.09898 13.501 9.00042 13.501C8.90186 13.501 8.80426 13.4816 8.71321 13.4438C8.62216 13.4061 8.53945 13.3508 8.46979 13.281L1.71979 6.53104C1.57906 6.39031 1.5 6.19944 1.5 6.00042C1.5 5.80139 1.57906 5.61052 1.71979 5.46979C1.86052 5.32906 2.05139 5.25 2.25042 5.25C2.44944 5.25 2.64031 5.32906 2.78104 5.46979L9.00042 11.6901L12.2198 8.46979C12.2894 8.40006 12.3722 8.34474 12.4632 8.307C12.5543 8.26925 12.6519 8.24983 12.7504 8.24983C12.849 8.24983 12.9466 8.26925 13.0376 8.307C13.1287 8.34474 13.2114 8.40006 13.281 8.46979L21.0004 16.1901V12.0004C21.0004 11.8015 21.0794 11.6107 21.2201 11.4701C21.3607 11.3294 21.5515 11.2504 21.7504 11.2504C21.9493 11.2504 22.1401 11.3294 22.2807 11.4701C22.4214 11.6107 22.5004 11.8015 22.5004 12.0004Z" fill="#CE1919"/>
<path d="M33.8892 19L40.2386 6.44318V6.33665H32.8949V4.45455H42.5114V6.40057L36.1832 19H33.8892ZM52.5735 16.2727V15.5057C52.5735 14.9564 52.6871 14.4545 52.9144 14C53.1464 13.5407 53.4826 13.1738 53.9229 12.8991C54.368 12.6198 54.9054 12.4801 55.5352 12.4801C56.1791 12.4801 56.7189 12.6174 57.1545 12.892C57.5901 13.1667 57.9192 13.5336 58.1417 13.9929C58.369 14.4522 58.4826 14.9564 58.4826 15.5057V16.2727C58.4826 16.822 58.369 17.3262 58.1417 17.7855C57.9144 18.2401 57.5806 18.607 57.1403 18.8864C56.7047 19.161 56.1696 19.2983 55.5352 19.2983C54.896 19.2983 54.3562 19.161 53.9158 18.8864C53.4755 18.607 53.1417 18.2401 52.9144 17.7855C52.6871 17.3262 52.5735 16.822 52.5735 16.2727ZM54.2283 15.5057V16.2727C54.2283 16.6799 54.3254 17.0492 54.5195 17.3807C54.7137 17.7121 55.0522 17.8778 55.5352 17.8778C56.0134 17.8778 56.3472 17.7121 56.5366 17.3807C56.726 17.0492 56.8207 16.6799 56.8207 16.2727V15.5057C56.8207 15.0985 56.7283 14.7292 56.5437 14.3977C56.3638 14.0663 56.0276 13.9006 55.5352 13.9006C55.0617 13.9006 54.7255 14.0663 54.5266 14.3977C54.3278 14.7292 54.2283 15.0985 54.2283 15.5057ZM45.2582 7.94886V7.18182C45.2582 6.63258 45.3718 6.12831 45.5991 5.66903C45.8311 5.20975 46.1673 4.8428 46.6076 4.56818C47.0527 4.29356 47.5901 4.15625 48.2198 4.15625C48.8638 4.15625 49.4035 4.29356 49.8391 4.56818C50.2747 4.8428 50.6038 5.20975 50.8263 5.66903C51.0489 6.12831 51.1602 6.63258 51.1602 7.18182V7.94886C51.1602 8.49811 51.0465 9.00237 50.8192 9.46165C50.5967 9.91619 50.2653 10.2831 49.8249 10.5625C49.3893 10.8371 48.8543 10.9744 48.2198 10.9744C47.5759 10.9744 47.0337 10.8371 46.5934 10.5625C46.1578 10.2831 45.8263 9.91619 45.5991 9.46165C45.3718 9.00237 45.2582 8.49811 45.2582 7.94886ZM46.9201 7.18182V7.94886C46.9201 8.35606 47.0148 8.72538 47.2042 9.05682C47.3983 9.38826 47.7369 9.55398 48.2198 9.55398C48.6933 9.55398 49.0247 9.38826 49.2141 9.05682C49.4083 8.72538 49.5053 8.35606 49.5053 7.94886V7.18182C49.5053 6.77462 49.413 6.4053 49.2283 6.07386C49.0437 5.74242 48.7075 5.5767 48.2198 5.5767C47.7463 5.5767 47.4102 5.74242 47.2113 6.07386C47.0172 6.4053 46.9201 6.77462 46.9201 7.18182ZM45.9329 19L55.9329 4.45455H57.6303L47.6303 19H45.9329Z" fill="#CE1919"/>
</svg>
