<svg width="74" height="24" viewBox="0 0 74 24" fill="none" xmlns="http://www.w3.org/2000/svg">
<path d="M22.5004 5.25V11.25C22.5004 11.4489 22.4214 11.6397 22.2807 11.7803C22.1401 11.921 21.9493 12 21.7504 12C21.5515 12 21.3607 11.921 21.2201 11.7803C21.0794 11.6397 21.0004 11.4489 21.0004 11.25V7.06031L13.281 14.7806C13.2114 14.8504 13.1287 14.9057 13.0376 14.9434C12.9466 14.9812 12.849 15.0006 12.7504 15.0006C12.6519 15.0006 12.5543 14.9812 12.4632 14.9434C12.3722 14.9057 12.2894 14.8504 12.2198 14.7806L9.00042 11.5603L2.78104 17.7806C2.64031 17.9214 2.44944 18.0004 2.25042 18.0004C2.05139 18.0004 1.86052 17.9214 1.71979 17.7806C1.57906 17.6399 1.5 17.449 1.5 17.25C1.5 17.051 1.57906 16.8601 1.71979 16.7194L8.46979 9.96937C8.53945 9.89964 8.62216 9.84432 8.71321 9.80658C8.80426 9.76884 8.90186 9.74941 9.00042 9.74941C9.09898 9.74941 9.19657 9.76884 9.28762 9.80658C9.37867 9.84432 9.46139 9.89964 9.53104 9.96937L12.7504 13.1897L19.9401 6H15.7504C15.5515 6 15.3607 5.92098 15.2201 5.78033C15.0794 5.63968 15.0004 5.44891 15.0004 5.25C15.0004 5.05109 15.0794 4.86032 15.2201 4.71967C15.3607 4.57902 15.5515 4.5 15.7504 4.5H21.7504C21.9493 4.5 22.1401 4.57902 22.2807 4.71967C22.4214 4.86032 22.5004 5.05109 22.5004 5.25Z" fill="#289245"/>
<path d="M33.3991 19V17.4091L38.321 12.3097C38.8466 11.7557 39.2798 11.2704 39.6207 10.8537C39.9664 10.4323 40.2244 10.0322 40.3949 9.65341C40.5653 9.27462 40.6506 8.87216 40.6506 8.44602C40.6506 7.96307 40.5369 7.5464 40.3097 7.19602C40.0824 6.84091 39.7723 6.56866 39.3793 6.37926C38.9863 6.18513 38.5436 6.08807 38.0511 6.08807C37.5303 6.08807 37.0758 6.1946 36.6875 6.40767C36.2992 6.62074 36.0009 6.9214 35.7926 7.30966C35.5843 7.69792 35.4801 8.15246 35.4801 8.6733H33.3849C33.3849 7.78788 33.5885 7.01373 33.9957 6.35085C34.4029 5.68797 34.9616 5.17424 35.6719 4.80966C36.3821 4.44034 37.1894 4.25568 38.0938 4.25568C39.0076 4.25568 39.8125 4.43797 40.5085 4.80256C41.2093 5.1624 41.7562 5.65483 42.1491 6.27983C42.5421 6.90009 42.7386 7.60085 42.7386 8.3821C42.7386 8.92188 42.6368 9.44981 42.4332 9.96591C42.2344 10.482 41.8864 11.0573 41.3892 11.6918C40.892 12.3215 40.2008 13.0862 39.3153 13.9858L36.4247 17.0114V17.1179H42.973V19H33.3991ZM50.7287 19.1989C49.7533 19.1989 48.8821 19.0308 48.1151 18.6946C47.3527 18.3584 46.7491 17.892 46.304 17.2955C45.8636 16.6941 45.6269 15.9981 45.5938 15.2074H47.8239C47.8523 15.6383 47.9967 16.0123 48.2571 16.3295C48.5223 16.642 48.8679 16.8835 49.294 17.054C49.7202 17.2244 50.1937 17.3097 50.7145 17.3097C51.2874 17.3097 51.794 17.2102 52.2344 17.0114C52.6795 16.8125 53.0275 16.5355 53.2784 16.1804C53.5294 15.8205 53.6548 15.4062 53.6548 14.9375C53.6548 14.4498 53.5294 14.0213 53.2784 13.652C53.0322 13.2779 52.67 12.9844 52.1918 12.7713C51.7183 12.5582 51.1454 12.4517 50.473 12.4517H49.2443V10.6619H50.473C51.0128 10.6619 51.4863 10.5649 51.8935 10.3707C52.3054 10.1766 52.6274 9.90672 52.8594 9.56108C53.0914 9.2107 53.2074 8.80114 53.2074 8.33239C53.2074 7.88258 53.1056 7.49195 52.902 7.16051C52.7031 6.82434 52.419 6.56155 52.0497 6.37216C51.6851 6.18276 51.2543 6.08807 50.7571 6.08807C50.2836 6.08807 49.8409 6.17566 49.429 6.35085C49.0218 6.52131 48.6903 6.76752 48.4347 7.08949C48.179 7.40672 48.0417 7.78788 48.0227 8.23295H45.8991C45.9228 7.44697 46.1548 6.75568 46.5952 6.15909C47.0402 5.5625 47.6274 5.09612 48.3565 4.75994C49.0857 4.42377 49.8954 4.25568 50.7855 4.25568C51.7183 4.25568 52.5232 4.43797 53.2003 4.80256C53.8821 5.1624 54.4077 5.64299 54.777 6.24432C55.151 6.84564 55.3357 7.50379 55.331 8.21875C55.3357 9.03314 55.1084 9.72443 54.6491 10.2926C54.1946 10.8608 53.5885 11.242 52.831 11.4361V11.5497C53.7969 11.6965 54.545 12.08 55.0753 12.7003C55.6103 13.3205 55.8755 14.09 55.8707 15.0085C55.8755 15.8087 55.6529 16.526 55.2031 17.1605C54.758 17.795 54.1496 18.2945 53.3778 18.6591C52.6061 19.0189 51.723 19.1989 50.7287 19.1989ZM66.1477 16.2727V15.5057C66.1477 14.9564 66.2614 14.4545 66.4886 14C66.7206 13.5407 67.0568 13.1738 67.4972 12.8991C67.9422 12.6198 68.4796 12.4801 69.1094 12.4801C69.7533 12.4801 70.2931 12.6174 70.7287 12.892C71.1643 13.1667 71.4934 13.5336 71.7159 13.9929C71.9432 14.4522 72.0568 14.9564 72.0568 15.5057V16.2727C72.0568 16.822 71.9432 17.3262 71.7159 17.7855C71.4886 18.2401 71.1548 18.607 70.7145 18.8864C70.2789 19.161 69.7438 19.2983 69.1094 19.2983C68.4702 19.2983 67.9304 19.161 67.4901 18.8864C67.0497 18.607 66.7159 18.2401 66.4886 17.7855C66.2614 17.3262 66.1477 16.822 66.1477 16.2727ZM67.8026 15.5057V16.2727C67.8026 16.6799 67.8996 17.0492 68.0938 17.3807C68.2879 17.7121 68.6264 17.8778 69.1094 17.8778C69.5876 17.8778 69.9214 17.7121 70.1108 17.3807C70.3002 17.0492 70.3949 16.6799 70.3949 16.2727V15.5057C70.3949 15.0985 70.3026 14.7292 70.1179 14.3977C69.938 14.0663 69.6018 13.9006 69.1094 13.9006C68.6359 13.9006 68.2997 14.0663 68.1009 14.3977C67.902 14.7292 67.8026 15.0985 67.8026 15.5057ZM58.8324 7.94886V7.18182C58.8324 6.63258 58.946 6.12831 59.1733 5.66903C59.4053 5.20975 59.7415 4.8428 60.1818 4.56818C60.6269 4.29356 61.1643 4.15625 61.794 4.15625C62.438 4.15625 62.9777 4.29356 63.4134 4.56818C63.849 4.8428 64.178 5.20975 64.4006 5.66903C64.6231 6.12831 64.7344 6.63258 64.7344 7.18182V7.94886C64.7344 8.49811 64.6207 9.00237 64.3935 9.46165C64.1709 9.91619 63.8395 10.2831 63.3991 10.5625C62.9635 10.8371 62.4285 10.9744 61.794 10.9744C61.1501 10.9744 60.608 10.8371 60.1676 10.5625C59.732 10.2831 59.4006 9.91619 59.1733 9.46165C58.946 9.00237 58.8324 8.49811 58.8324 7.94886ZM60.4943 7.18182V7.94886C60.4943 8.35606 60.589 8.72538 60.7784 9.05682C60.9725 9.38826 61.3111 9.55398 61.794 9.55398C62.2675 9.55398 62.599 9.38826 62.7884 9.05682C62.9825 8.72538 63.0795 8.35606 63.0795 7.94886V7.18182C63.0795 6.77462 62.9872 6.4053 62.8026 6.07386C62.6179 5.74242 62.2817 5.5767 61.794 5.5767C61.3205 5.5767 60.9844 5.74242 60.7855 6.07386C60.5914 6.4053 60.4943 6.77462 60.4943 7.18182ZM59.5071 19L69.5071 4.45455H71.2045L61.2045 19H59.5071Z" fill="#289245"/>
</svg>
