<svg width="48" height="48" viewBox="0 0 48 48" fill="none" xmlns="http://www.w3.org/2000/svg">
<rect width="48" height="48" rx="8" fill="#F5F7FB"/>
<path d="M35.375 23.125H34.4628C34.2528 20.6525 33.1753 18.3339 31.4207 16.5793C29.6661 14.8247 27.3475 13.7472 24.875 13.5372V12.625C24.875 12.3929 24.7828 12.1704 24.6187 12.0063C24.4546 11.8422 24.2321 11.75 24 11.75C23.7679 11.75 23.5454 11.8422 23.3813 12.0063C23.2172 12.1704 23.125 12.3929 23.125 12.625V13.5372C20.6525 13.7472 18.3339 14.8247 16.5793 16.5793C14.8247 18.3339 13.7472 20.6525 13.5372 23.125H12.625C12.3929 23.125 12.1704 23.2172 12.0063 23.3813C11.8422 23.5454 11.75 23.7679 11.75 24C11.75 24.2321 11.8422 24.4546 12.0063 24.6187C12.1704 24.7828 12.3929 24.875 12.625 24.875H13.5372C13.7472 27.3475 14.8247 29.6661 16.5793 31.4207C18.3339 33.1753 20.6525 34.2528 23.125 34.4628V35.375C23.125 35.6071 23.2172 35.8296 23.3813 35.9937C23.5454 36.1578 23.7679 36.25 24 36.25C24.2321 36.25 24.4546 36.1578 24.6187 35.9937C24.7828 35.8296 24.875 35.6071 24.875 35.375V34.4628C27.3475 34.2528 29.6661 33.1753 31.4207 31.4207C33.1753 29.6661 34.2528 27.3475 34.4628 24.875H35.375C35.6071 24.875 35.8296 24.7828 35.9937 24.6187C36.1578 24.4546 36.25 24.2321 36.25 24C36.25 23.7679 36.1578 23.5454 35.9937 23.3813C35.8296 23.2172 35.6071 23.125 35.375 23.125ZM24.875 32.7063V31.875C24.875 31.6429 24.7828 31.4204 24.6187 31.2563C24.4546 31.0922 24.2321 31 24 31C23.7679 31 23.5454 31.0922 23.3813 31.2563C23.2172 31.4204 23.125 31.6429 23.125 31.875V32.7063C21.1178 32.5014 19.2427 31.6106 17.8161 30.1839C16.3894 28.7573 15.4986 26.8822 15.2938 24.875H16.125C16.3571 24.875 16.5796 24.7828 16.7437 24.6187C16.9078 24.4546 17 24.2321 17 24C17 23.7679 16.9078 23.5454 16.7437 23.3813C16.5796 23.2172 16.3571 23.125 16.125 23.125H15.2938C15.4986 21.1178 16.3894 19.2427 17.8161 17.8161C19.2427 16.3894 21.1178 15.4986 23.125 15.2938V16.125C23.125 16.3571 23.2172 16.5796 23.3813 16.7437C23.5454 16.9078 23.7679 17 24 17C24.2321 17 24.4546 16.9078 24.6187 16.7437C24.7828 16.5796 24.875 16.3571 24.875 16.125V15.2938C26.8822 15.4986 28.7573 16.3894 30.1839 17.8161C31.6106 19.2427 32.5014 21.1178 32.7063 23.125H31.875C31.6429 23.125 31.4204 23.2172 31.2563 23.3813C31.0922 23.5454 31 23.7679 31 24C31 24.2321 31.0922 24.4546 31.2563 24.6187C31.4204 24.7828 31.6429 24.875 31.875 24.875H32.7063C32.5014 26.8822 31.6106 28.7573 30.1839 30.1839C28.7573 31.6106 26.8822 32.5014 24.875 32.7063ZM24 19.625C23.1347 19.625 22.2888 19.8816 21.5694 20.3623C20.8499 20.8431 20.2892 21.5263 19.958 22.3258C19.6269 23.1252 19.5403 24.0049 19.7091 24.8535C19.8779 25.7022 20.2946 26.4817 20.9064 27.0936C21.5183 27.7054 22.2978 28.1221 23.1465 28.2909C23.9951 28.4597 24.8748 28.3731 25.6742 28.042C26.4737 27.7108 27.1569 27.1501 27.6377 26.4306C28.1184 25.7112 28.375 24.8653 28.375 24C28.375 22.8397 27.9141 21.7269 27.0936 20.9064C26.2731 20.0859 25.1603 19.625 24 19.625ZM24 26.625C23.4808 26.625 22.9733 26.471 22.5416 26.1826C22.1099 25.8942 21.7735 25.4842 21.5748 25.0045C21.3761 24.5249 21.3242 23.9971 21.4254 23.4879C21.5267 22.9787 21.7767 22.511 22.1438 22.1438C22.511 21.7767 22.9787 21.5267 23.4879 21.4254C23.9971 21.3242 24.5249 21.3761 25.0045 21.5748C25.4842 21.7735 25.8942 22.1099 26.1826 22.5416C26.471 22.9733 26.625 23.4808 26.625 24C26.625 24.6962 26.3484 25.3639 25.8562 25.8562C25.3639 26.3484 24.6962 26.625 24 26.625Z" fill="#5C19C6"/>
</svg>
