<svg width="126" height="24" viewBox="0 0 126 24" fill="none" xmlns="http://www.w3.org/2000/svg">
<path d="M22.5004 5.25V11.25C22.5004 11.4489 22.4214 11.6397 22.2807 11.7803C22.1401 11.921 21.9493 12 21.7504 12C21.5515 12 21.3607 11.921 21.2201 11.7803C21.0794 11.6397 21.0004 11.4489 21.0004 11.25V7.06031L13.281 14.7806C13.2114 14.8504 13.1287 14.9057 13.0376 14.9434C12.9466 14.9812 12.849 15.0006 12.7504 15.0006C12.6519 15.0006 12.5543 14.9812 12.4632 14.9434C12.3722 14.9057 12.2894 14.8504 12.2198 14.7806L9.00042 11.5603L2.78104 17.7806C2.64031 17.9214 2.44944 18.0004 2.25042 18.0004C2.05139 18.0004 1.86052 17.9214 1.71979 17.7806C1.57906 17.6399 1.5 17.449 1.5 17.25C1.5 17.051 1.57906 16.8601 1.71979 16.7194L8.46979 9.96937C8.53945 9.89964 8.62216 9.84432 8.71321 9.80658C8.80426 9.76884 8.90186 9.74941 9.00042 9.74941C9.09898 9.74941 9.19657 9.76884 9.28762 9.80658C9.37867 9.84432 9.46139 9.89964 9.53104 9.96937L12.7504 13.1897L19.9401 6H15.7504C15.5515 6 15.3607 5.92098 15.2201 5.78033C15.0794 5.63968 15.0004 5.44891 15.0004 5.25C15.0004 5.05109 15.0794 4.86032 15.2201 4.71967C15.3607 4.57902 15.5515 4.5 15.7504 4.5H21.7504C21.9493 4.5 22.1401 4.57902 22.2807 4.71967C22.4214 4.86032 22.5004 5.05109 22.5004 5.25Z" fill="#A3A3A3"/>
<path d="M33.2784 17.5V5.86364H35.0341V10.9205H40.8352V5.86364H42.5966V17.5H40.8352V12.4261H35.0341V17.5H33.2784ZM48.7784 17.6761C47.9186 17.6761 47.178 17.4924 46.5568 17.125C45.9394 16.7538 45.4621 16.233 45.125 15.5625C44.7917 14.8883 44.625 14.0985 44.625 13.1932C44.625 12.2992 44.7917 11.5114 45.125 10.8295C45.4621 10.1477 45.9318 9.61553 46.5341 9.23295C47.1402 8.85038 47.8485 8.65909 48.6591 8.65909C49.1515 8.65909 49.6288 8.74053 50.0909 8.90341C50.553 9.06629 50.9678 9.32197 51.3352 9.67045C51.7027 10.0189 51.9924 10.4716 52.2045 11.0284C52.4167 11.5814 52.5227 12.2538 52.5227 13.0455V13.6477H45.5852V12.375H50.858C50.858 11.928 50.767 11.5322 50.5852 11.1875C50.4034 10.839 50.1477 10.5644 49.8182 10.3636C49.4924 10.1629 49.1098 10.0625 48.6705 10.0625C48.1932 10.0625 47.7765 10.1799 47.4205 10.4148C47.0682 10.6458 46.7955 10.9489 46.6023 11.3239C46.4129 11.6951 46.3182 12.0985 46.3182 12.5341V13.5284C46.3182 14.1117 46.4205 14.608 46.625 15.017C46.8333 15.4261 47.1231 15.7386 47.4943 15.9545C47.8655 16.1667 48.2992 16.2727 48.7955 16.2727C49.1174 16.2727 49.411 16.2273 49.6761 16.1364C49.9413 16.0417 50.1705 15.9015 50.3636 15.7159C50.5568 15.5303 50.7045 15.3011 50.8068 15.0284L52.4148 15.3182C52.286 15.7917 52.0549 16.2064 51.7216 16.5625C51.392 16.9148 50.9773 17.1894 50.4773 17.3864C49.9811 17.5795 49.4148 17.6761 48.7784 17.6761ZM53.6378 10.2386V8.77273H61.0014V10.2386H58.1548V17.5H56.4957V10.2386H53.6378ZM66.1804 20.017V16.0284H66.8906C67.0724 15.8617 67.2259 15.6629 67.3509 15.4318C67.4796 15.2008 67.5876 14.9261 67.6747 14.608C67.7656 14.2898 67.8414 13.9186 67.902 13.4943C67.9626 13.0663 68.0156 12.5777 68.0611 12.0284L68.3338 8.77273H74.2656V16.0284H75.6065V20.017H73.9474V17.5H67.8622V20.017H66.1804ZM68.7088 16.0284H72.6065V10.2273H69.8565L69.6747 12.0284C69.5876 12.9451 69.4777 13.7405 69.3452 14.4148C69.2126 15.0852 69.0005 15.6231 68.7088 16.0284ZM79.8068 17.6932C79.2538 17.6932 78.7538 17.5909 78.3068 17.3864C77.8598 17.178 77.5057 16.8769 77.2443 16.483C76.9867 16.089 76.858 15.6061 76.858 15.0341C76.858 14.5417 76.9527 14.1364 77.142 13.8182C77.3314 13.5 77.5871 13.2481 77.9091 13.0625C78.2311 12.8769 78.5909 12.7367 78.9886 12.642C79.3864 12.5473 79.7917 12.4754 80.2045 12.4261C80.7273 12.3655 81.1515 12.3163 81.4773 12.2784C81.803 12.2367 82.0398 12.1705 82.1875 12.0795C82.3352 11.9886 82.4091 11.8409 82.4091 11.6364V11.5966C82.4091 11.1004 82.2689 10.7159 81.9886 10.4432C81.7121 10.1705 81.2992 10.0341 80.75 10.0341C80.178 10.0341 79.7273 10.161 79.3977 10.4148C79.072 10.6648 78.8466 10.9432 78.7216 11.25L77.125 10.8864C77.3144 10.3561 77.5909 9.92803 77.9545 9.60227C78.322 9.27273 78.7443 9.03409 79.2216 8.88636C79.6989 8.73485 80.2008 8.65909 80.7273 8.65909C81.0758 8.65909 81.4451 8.70076 81.8352 8.78409C82.2292 8.86364 82.5966 9.01136 82.9375 9.22727C83.2822 9.44318 83.5644 9.75189 83.7841 10.1534C84.0038 10.5511 84.1136 11.0682 84.1136 11.7045V17.5H82.4545V16.3068H82.3864C82.2765 16.5265 82.1117 16.7424 81.892 16.9545C81.6723 17.1667 81.3902 17.3428 81.0455 17.483C80.7008 17.6231 80.2879 17.6932 79.8068 17.6932ZM80.1761 16.3295C80.6458 16.3295 81.0473 16.2367 81.3807 16.0511C81.7178 15.8655 81.9735 15.6231 82.1477 15.3239C82.3258 15.0208 82.4148 14.697 82.4148 14.3523V13.2273C82.3542 13.2879 82.2367 13.3447 82.0625 13.3977C81.892 13.447 81.697 13.4905 81.4773 13.5284C81.2576 13.5625 81.0436 13.5947 80.8352 13.625C80.6269 13.6515 80.4527 13.6742 80.3125 13.6932C79.983 13.7348 79.6818 13.8049 79.4091 13.9034C79.1402 14.0019 78.9242 14.1439 78.7614 14.3295C78.6023 14.5114 78.5227 14.7538 78.5227 15.0568C78.5227 15.4773 78.678 15.7955 78.9886 16.0114C79.2992 16.2235 79.6951 16.3295 80.1761 16.3295ZM92.2912 12.4034V13.875H87.5639V12.4034H92.2912ZM88.0412 8.77273V17.5H86.3764V8.77273H88.0412ZM93.4787 8.77273V17.5H91.8196V8.77273H93.4787ZM101.666 12.4034V13.875H96.9389V12.4034H101.666ZM97.4162 8.77273V17.5H95.7514V8.77273H97.4162ZM102.854 8.77273V17.5H101.195V8.77273H102.854ZM106.405 11.7727H108.939C110.007 11.7727 110.829 12.0379 111.405 12.5682C111.981 13.0985 112.268 13.7822 112.268 14.6193C112.268 15.1648 112.14 15.6553 111.882 16.0909C111.625 16.5265 111.248 16.8712 110.751 17.125C110.255 17.375 109.651 17.5 108.939 17.5H105.126V8.77273H106.791V16.0341H108.939C109.428 16.0341 109.829 15.9072 110.143 15.6534C110.458 15.3958 110.615 15.0682 110.615 14.6705C110.615 14.25 110.458 13.9072 110.143 13.642C109.829 13.3731 109.428 13.2386 108.939 13.2386H106.405V11.7727ZM113.507 17.5V8.77273H115.206V17.5H113.507ZM118.827 8.77273L120.753 12.1705L122.696 8.77273H124.554L121.832 13.1364L124.577 17.5H122.719L120.753 14.2386L118.793 17.5H116.929L119.645 13.1364L116.963 8.77273H118.827Z" fill="#A3A3A3"/>
</svg>
